<?xml version="1.0" encoding="utf-8"?>
<!-- Generator: Adobe Illustrator 23.0.2, SVG Export Plug-In . SVG Version: 6.00 Build 0)  -->
<svg version="1.1" id="レイヤー_1" xmlns="http://www.w3.org/2000/svg" xmlns:xlink="http://www.w3.org/1999/xlink" x="0px"
	 y="0px" viewBox="0 0 18 18" style="enable-background:new 0 0 18 18;" xml:space="preserve">
<style type="text/css">
	.st0{fill:#00AFF0;}
</style>
<path class="st0" d="M17.4,10.5C17.4,10.5,17.4,10.6,17.4,10.5L17.4,10.5C17.4,10.4,17.4,10.5,17.4,10.5c0.1-0.5,0.1-1,0.1-1.5
	c0-4.7-3.8-8.5-8.5-8.5c0,0,0,0,0,0c-0.5,0-1.1,0.1-1.6,0.2l0,0c0,0,0.1,0,0.1,0l-0.2,0l0.1,0C5-0.7,1.9,0.2,0.6,2.7
	c-0.8,1.5-0.8,3.3,0,4.8c0,0,0-0.1,0-0.1l0,0.2c0,0,0-0.1,0-0.1C0.6,8,0.5,8.5,0.5,9c0,4.7,3.8,8.5,8.5,8.5c0,0,0,0,0,0
	c0.5,0,1,0,1.5-0.1l-0.1,0l0.2,0l-0.1,0c2.4,1.4,5.5,0.5,6.9-1.9C18.2,13.9,18.2,12,17.4,10.5z M9.1,14.2c-3,0-4.4-1.5-4.4-2.6
	c0-0.5,0.4-1,0.9-1c0,0,0,0,0.1,0c1.3,0,1,1.9,3.4,1.9c1.2,0,1.9-0.7,1.9-1.4c0-0.4-0.2-0.9-1-1.1L7.3,9.4C5.1,8.8,4.7,7.6,4.7,6.5
	c0-2.3,2.1-3.1,4.2-3.1c1.9,0,4.1,1,4.1,2.4c0,0.5-0.5,1-1,0.9c0,0,0,0-0.1,0c-1.1,0-0.9-1.5-3.1-1.5C7.6,5.2,7,5.7,7,6.4
	s0.9,0.9,1.6,1.1l2,0.4c2.2,0.5,2.7,1.8,2.7,3C13.4,12.8,11.9,14.2,9.1,14.2z M10.4,17.3L10.4,17.3l0.2,0L10.4,17.3z M17.4,10.6
	C17.4,10.6,17.4,10.5,17.4,10.6c0-0.1,0-0.2,0-0.2L17.4,10.6z M0.7,7.4C0.7,7.4,0.7,7.5,0.7,7.4c0,0.1,0,0.2,0,0.2L0.7,7.4z
	 M7.5,0.7C7.5,0.6,7.4,0.6,7.5,0.7l-0.2,0L7.5,0.7z"/>
</svg>
