<?xml version="1.0" encoding="utf-8"?>
<!-- Generator: Adobe Illustrator 23.0.2, SVG Export Plug-In . SVG Version: 6.00 Build 0)  -->
<svg version="1.1" id="レイヤー_1" xmlns="http://www.w3.org/2000/svg" xmlns:xlink="http://www.w3.org/1999/xlink" x="0px"
	 y="0px" viewBox="0 0 18 18" style="enable-background:new 0 0 18 18;" xml:space="preserve">
<style type="text/css">
	.st0{fill-rule:evenodd;clip-rule:evenodd;fill:#EA6C00;}
	.st1{fill-rule:evenodd;clip-rule:evenodd;fill:#FDAD00;}
	.st2{fill-rule:evenodd;clip-rule:evenodd;fill:#FDD231;}
	.st3{fill-rule:evenodd;clip-rule:evenodd;fill:#FEEEB7;}
</style>
<g transform="translate(-0.17 -0.42)">
	<path class="st0" d="M3.8,7.1l5.4,10.5l-9-10.5H3.8z"/>
	<path class="st0" d="M14.5,7.1L9.2,17.6l9-10.5H14.5z"/>
	<path class="st1" d="M3.8,7.1h10.7L9.2,17.6L3.8,7.1z"/>
	<path class="st2" d="M9.2,1.3L4.1,1.8L3.8,7.1L9.2,1.3z"/>
	<path class="st2" d="M9.2,1.3l5.1,0.5l0.3,5.3L9.2,1.3z"/>
	<path class="st1" d="M18.2,7.1l-3.9-5.3l0.3,5.3H18.2z"/>
	<path class="st1" d="M0.2,7.1l3.9-5.3L3.8,7.1H0.2z"/>
	<path class="st3" d="M9.2,1.3L3.8,7.1h10.7L9.2,1.3z"/>
</g>
</svg>
