<?xml version="1.0" encoding="utf-8"?>
<!-- Generator: Adobe Illustrator 23.0.2, SVG Export Plug-In . SVG Version: 6.00 Build 0)  -->
<svg version="1.1" id="レイヤー_1" xmlns="http://www.w3.org/2000/svg" xmlns:xlink="http://www.w3.org/1999/xlink" x="0px"
	 y="0px" viewBox="0 0 18 18" style="enable-background:new 0 0 18 18;" xml:space="preserve">
<style type="text/css">
	.st0{fill:#03A9F4;}
	.st1{fill:#B3E5FC;}
	.st2{fill:#0277BD;}
	.st3{fill:#FFFFFF;}
</style>
<g transform="translate(-6 -5.461)">
	<path class="st0" d="M13.5,18.2c0,0.6,0.4,1,1,1H23c0.6,0,1-0.4,1-1v-7.5c0-0.6-0.4-1-1-1h-8.5c-0.6,0-1,0.4-1,1V18.2z"/>
	<path class="st1" d="M24,11.2v-0.5c0-0.2-0.1-0.4-0.2-0.6l-5.6,3.5l-3.8-2.3l-0.4,0.9l4.2,2.5L24,11.2z"/>
	<path class="st2" d="M16.5,23.5L6,21.5v-14l10.5-2V23.5z"/>
	<path class="st3" d="M13.6,11.9c-0.5-0.6-1.3-1-2.2-1c-0.9,0-1.7,0.3-2.3,1c-0.6,0.7-0.9,1.7-0.9,2.6c0,0.9,0.3,1.8,0.8,2.5
		c0.5,0.6,1.4,1,2.2,1c0.9,0,1.7-0.3,2.2-1c0.6-0.7,0.9-1.7,0.9-2.6C14.5,13.5,14.2,12.6,13.6,11.9z M12.5,16.1
		c-0.5,0.6-1.4,0.8-2,0.3c-0.1-0.1-0.2-0.2-0.3-0.3c-0.3-0.5-0.5-1-0.4-1.6c0-0.6,0.1-1.1,0.4-1.6c0.3-0.4,0.7-0.6,1.2-0.6
		c0.5,0,0.9,0.2,1.1,0.6c0.3,0.5,0.4,1.1,0.4,1.7C13,15.1,12.8,15.6,12.5,16.1z"/>
</g>
</svg>
