<?xml version="1.0" encoding="utf-8"?>
<!-- Generator: Adobe Illustrator 23.0.2, SVG Export Plug-In . SVG Version: 6.00 Build 0)  -->
<svg version="1.1" id="レイヤー_1" xmlns="http://www.w3.org/2000/svg" xmlns:xlink="http://www.w3.org/1999/xlink" x="0px"
	 y="0px" viewBox="0 0 18 18" style="enable-background:new 0 0 18 18;" xml:space="preserve">
<style type="text/css">
	.st0{fill:#0ACF83;}
	.st1{fill:#A259FF;}
	.st2{fill:#F24E1E;}
	.st3{fill:#FF7262;}
	.st4{fill:#1ABCFE;}
</style>
<path class="st0" d="M6,18c1.7,0,3-1.3,3-3v-3H6c-1.7,0-3,1.3-3,3S4.3,18,6,18z"/>
<path class="st1" d="M3,9c0-1.7,1.3-3,3-3h3v6H6C4.3,12,3,10.7,3,9z"/>
<path class="st2" d="M3,3c0-1.7,1.3-3,3-3h3v6H6C4.3,6,3,4.7,3,3z"/>
<path class="st3" d="M9,0h3c1.7,0,3,1.3,3,3s-1.3,3-3,3H9V0z"/>
<path class="st4" d="M15,9c0,1.7-1.3,3-3,3s-3-1.3-3-3s1.3-3,3-3S15,7.3,15,9z"/>
</svg>
