<?xml version="1.0" encoding="utf-8"?>
<!-- Generator: Adobe Illustrator 23.0.2, SVG Export Plug-In . SVG Version: 6.00 Build 0)  -->
<svg version="1.1" id="レイヤー_1" xmlns="http://www.w3.org/2000/svg" xmlns:xlink="http://www.w3.org/1999/xlink" x="0px"
	 y="0px" viewBox="0 0 18 18" style="enable-background:new 0 0 18 18;" xml:space="preserve">
<style type="text/css">
	.st0{fill:#FDBD39;}
	.st1{fill:#F69833;}
	.st2{fill:#FECF33;}
	.st3{fill:#EE6723;}
</style>
<g transform="translate(0 0.1)">
	<path class="st0" d="M2.8,11.6L1.8,12l-0.1,2.8L5,13.6C4,13.3,3.2,12.6,2.8,11.6"/>
	<path class="st1" d="M3.3,8.7L0,9.9L1.8,12l0.9-0.3C2.5,10.6,2.7,9.5,3.3,8.7"/>
	<path class="st2" d="M8.8,4.6c-4.2,1.5-6.8,4.7-6,7l15.1-5.5C17,3.8,12.9,3.1,8.8,4.6"/>
	<path class="st3" d="M11.9,13.1c4.2-1.5,6.8-4.6,6-7L2.8,11.6C3.6,14,7.7,14.6,11.9,13.1"/>
	<path class="st1" d="M17.8,6.1L2.8,11.6c0.3,0.8,1.4,1.2,3,1.2c1.9-0.1,3.8-0.4,5.6-1.1C15.5,10.2,18.4,7.7,17.8,6.1"/>
	<path class="st0" d="M14.8,4.9C12.9,5,11.1,5.4,9.3,6c-4.2,1.5-7.1,4-6.5,5.6l15.1-5.5C17.5,5.3,16.4,4.9,14.8,4.9"/>
	<g transform="translate(5.827 -0.1)">
		<path class="st3" d="M8.2,15c-0.8-0.2-1.4-0.6-1.9-1.2c-2.4-2.4-4.3-5.2-5.7-8.2c-0.6-1.4-0.7-2.2-0.2-2.5C0.4,3,0.5,3,0.6,3
			c0.3,0,1,0.3,2.2,1.5l0,0v0c0,0.1,0,0.2,0,0.3l0,0.2L2.7,4.8C1.4,3.5,0.8,3.4,0.6,3.4c0,0-0.1,0-0.1,0C0.3,3.5,0.3,4.1,0.8,5.5
			c1.4,3,3.3,5.8,5.6,8.1c1.1,1,1.5,1.1,1.7,1.1c0,0,0.1,0,0.1,0c0.2-0.1,0.2-0.8-0.4-2.2l0-0.1l0.1,0c0.1,0,0.1-0.1,0.2-0.1l0.1,0
			l0,0.1c0.4,1,0.9,2.3,0.3,2.7C8.4,15,8.3,15,8.2,15z M8.2,14.9L8.2,14.9z"/>
		<path class="st3" d="M6.1,13.2L6.1,13.2c-0.1,1.4-0.4,2.9-1.1,3h0c-0.5,0-1-0.7-1.4-2.1c-0.5-1.6-0.8-3.3-0.9-5
			c-0.2-1.7-0.2-3.4,0-5c0.2-1.5,0.5-2.3,1-2.3h0c0.4,0,0.9,0.4,1.4,2.3L4.9,4.2c-0.1-0.5-0.3-1-0.6-1.5C4.1,2.3,4,2.2,3.8,2.2h0
			c-0.2,0-0.5,0.6-0.7,2c-0.2,1.6-0.2,3.3,0,5c0.1,1.7,0.4,3.3,0.9,4.9c0.1,0.5,0.3,0.9,0.6,1.4c0.2,0.3,0.3,0.5,0.5,0.5h0
			c0.2,0,0.6-0.6,0.8-2.5L6.1,13.2z"/>
	</g>
</g>
</svg>
