<?xml version="1.0" encoding="utf-8"?>
<!-- Generator: Adobe Illustrator 23.0.2, SVG Export Plug-In . SVG Version: 6.00 Build 0)  -->
<svg version="1.1" id="レイヤー_1" xmlns="http://www.w3.org/2000/svg" xmlns:xlink="http://www.w3.org/1999/xlink" x="0px"
	 y="0px" viewBox="0 0 18 18" style="enable-background:new 0 0 18 18;" xml:space="preserve">
<style type="text/css">
	.st0{fill:#FFFFFF;}
	.st1{fill:#21759B;}
</style>
<g transform="translate(-4 -4)">
	<circle class="st0" cx="13" cy="13" r="9"/>
	<path class="st1" d="M5.8,13c0,2.8,1.6,5.3,4.1,6.5l-3.4-9.4C6,11,5.8,12,5.8,13z M17.9,12.6c-0.1-0.7-0.3-1.4-0.8-2
		c-0.4-0.5-0.6-1.1-0.7-1.7c0.1-0.7,0.7-1.3,1.4-1.3c0,0,0.1,0,0.1,0C14.9,5,10.4,5.2,7.7,8.1C7.5,8.4,7.3,8.6,7.1,8.8
		c0.1,0,0.2,0,0.3,0c0.8,0,1.9-0.1,1.9-0.1c0.2,0,0.3,0.2,0.3,0.3c0,0.1-0.1,0.2-0.2,0.3c0,0-0.4,0-0.8,0.1l2.7,8l1.6-4.7l-1.2-3.3
		c-0.4,0-0.8-0.1-0.8-0.1c-0.2,0-0.3-0.2-0.2-0.4c0-0.1,0.1-0.2,0.3-0.2c0,0,1.2,0.1,1.9,0.1c0.8,0,1.9-0.1,1.9-0.1
		c0.2,0,0.3,0.2,0.3,0.3c0,0.1-0.1,0.2-0.2,0.3c0,0-0.4,0-0.8,0.1l2.7,7.9l0.7-2.4C17.6,14.2,17.8,13.4,17.9,12.6L17.9,12.6z
		 M13.1,13.6L11,19.9c0.7,0.2,1.3,0.3,2,0.3c0.8,0,1.6-0.1,2.4-0.4c0,0,0-0.1-0.1-0.1L13.1,13.6z M19.3,9.5c0,0.2,0,0.5,0,0.7
		c0,0.9-0.2,1.8-0.5,2.6l-2.2,6.4C20,17.3,21.2,13,19.3,9.5z"/>
	<path class="st1" d="M4,13c0,5,4,9,9,9s9-4,9-9s-4-9-9-9C8,4,4,8,4,13z M4.9,13c0-4.5,3.6-8.1,8.1-8.1s8.1,3.6,8.1,8.1
		s-3.6,8.1-8.1,8.1c0,0,0,0,0,0C8.5,21.1,4.9,17.5,4.9,13z"/>
</g>
</svg>
