<?xml version="1.0" encoding="utf-8"?>
<!-- Generator: Adobe Illustrator 23.0.2, SVG Export Plug-In . SVG Version: 6.00 Build 0)  -->
<svg version="1.1" id="レイヤー_1" xmlns="http://www.w3.org/2000/svg" xmlns:xlink="http://www.w3.org/1999/xlink" x="0px"
	 y="0px" viewBox="0 0 18 18" style="enable-background:new 0 0 18 18;" xml:space="preserve">
<style type="text/css">
	.st0{fill:#FFC107;}
	.st1{fill:#FFECB3;}
	.st2{fill:#FFFFFF;}
</style>
<g transform="translate(-6 -6)">
	<path class="st0" d="M7.5,24H19l5-5V7.5C24,6.7,23.4,6,22.6,6c0,0,0,0-0.1,0h-15C6.7,6,6,6.6,6,7.4c0,0,0,0,0,0.1v15
		C6,23.3,6.6,24,7.5,24C7.5,24,7.5,24,7.5,24z"/>
	<path class="st1" d="M19,24v-5h5L19,24z"/>
	<path class="st2" d="M17,21h-4v-4c-2.2-1.1-3.2-3.8-2-6s3.8-3.2,6-2c1.5,0.8,2.5,2.3,2.5,4c0,1.7-1,3.3-2.5,4V21z M14,20h2v-3.6
		l0.3-0.1c1.8-0.7,2.7-2.8,1.9-4.5S15.5,9,13.7,9.7c-1.8,0.7-2.7,2.8-1.9,4.5c0.4,0.9,1.1,1.6,1.9,1.9l0.3,0.1L14,20z"/>
	<path class="st2" d="M14,20.5h2V22h-2V20.5z"/>
	<rect x="13.5" y="18" class="st2" width="3" height="1"/>
</g>
</svg>
