<?xml version="1.0" encoding="utf-8"?>
<!-- Generator: Adobe Illustrator 23.0.2, SVG Export Plug-In . SVG Version: 6.00 Build 0)  -->
<svg version="1.1" id="レイヤー_1" xmlns="http://www.w3.org/2000/svg" xmlns:xlink="http://www.w3.org/1999/xlink" x="0px"
	 y="0px" viewBox="0 0 18 18" style="enable-background:new 0 0 18 18;" xml:space="preserve">
<style type="text/css">
	.st0{fill:#2196F3;}
	.st1{fill:#FFFFFF;}
	.st2{fill:#0D47A1;}
</style>
<g transform="translate(-6 -6)">
	<path class="st0" d="M23.5,8h-8v14h8c0.3,0,0.5-0.2,0.5-0.5v-13C24,8.2,23.8,8,23.5,8z"/>
	<path class="st1" d="M15.5,10.5h7v1h-7V10.5z"/>
	<path class="st1" d="M15.5,12.5h7v1h-7V12.5z"/>
	<path class="st1" d="M15.5,14.5h7v1h-7V14.5z"/>
	<path class="st1" d="M15.5,16.5h7v1h-7V16.5z"/>
	<path class="st1" d="M15.5,18.5h7v1h-7V18.5z"/>
	<path class="st2" d="M16.5,24L6,22V8l10.5-2V24z"/>
	<path class="st1" d="M13.6,18.5h-1.4L11.3,14c-0.1-0.3-0.1-0.5-0.1-0.8h0c0,0.3,0,0.5-0.1,0.8l-0.9,4.5H8.8l-1.4-7h1.3l0.8,4.7
		c0,0.3,0.1,0.5,0.1,0.8h0c0-0.3,0.1-0.6,0.1-0.8l1-4.6H12l0.9,4.7c0,0.2,0.1,0.4,0.1,0.8h0c0-0.3,0-0.5,0.1-0.8l0.8-4.7H15
		L13.6,18.5z"/>
</g>
</svg>
