<?xml version="1.0" encoding="utf-8"?>
<!-- Generator: Adobe Illustrator 23.0.2, SVG Export Plug-In . SVG Version: 6.00 Build 0)  -->
<svg version="1.1" id="レイヤー_1" xmlns="http://www.w3.org/2000/svg" xmlns:xlink="http://www.w3.org/1999/xlink" x="0px"
	 y="0px" viewBox="0 0 18 18" style="enable-background:new 0 0 18 18;" xml:space="preserve">
<style type="text/css">
	.st0{fill:#DC395F;}
	.st1{fill:#FFFFFF;}
</style>
<path class="st0" d="M16.4,0H1.6C0.7,0,0,0.7,0,1.6v14.7C0,17.3,0.7,18,1.6,18h14.7c0.9,0,1.6-0.7,1.6-1.6V1.6C18,0.7,17.3,0,16.4,0
	"/>
<path class="st1" d="M6,5.7c0.6,0,1.1-0.5,1.1-1.1S6.6,3.5,6,3.5C5.4,3.5,4.9,4,4.9,4.6C4.9,5.2,5.4,5.7,6,5.7C6,5.7,6,5.7,6,5.7
	 M3.7,11.5c-0.1,0.3-0.1,0.5-0.1,0.8c-0.1,0.8,0.5,1.5,1.3,1.6c0.1,0,0.2,0,0.3,0c0.9,0,1.8-0.6,2.2-1.4l-0.3,1.3h1.8l1-4.2
	C10.2,8.6,10.7,8,11.5,8c0.5,0,0.9,0.3,1,0.8c0,0.1,0,0.1,0,0.2c0,0.2,0,0.4-0.1,0.6l-0.5,1.9c-0.1,0.3-0.1,0.5-0.1,0.8
	c-0.1,0.8,0.6,1.5,1.4,1.6c0.1,0,0.2,0,0.3,0c1,0,1.7-0.6,2.1-2.1l-0.7-0.3c-0.4,1-0.7,1.2-0.9,1.2s-0.4-0.2-0.4-0.5
	c0-0.2,0-0.3,0.1-0.5l0.5-1.9c0.1-0.4,0.2-0.8,0.2-1.2c0.1-1-0.6-2-1.6-2.1c-0.1,0-0.2,0-0.2,0c-1,0.1-2,0.8-2.4,1.8l0.4-1.6H7.6
	L7.2,8.1h1.3l-0.8,3.2c-0.3,0.8-1,1.4-1.9,1.4c-0.2-0.1-0.4-0.1-0.4-0.5c0-0.3,0-0.5,0.1-0.7l1.2-4.8H3.7L3.3,8.1h1.3L3.7,11.5"/>
</svg>
