<?xml version="1.0" encoding="utf-8"?>
<!-- Generator: Adobe Illustrator 23.0.2, SVG Export Plug-In . SVG Version: 6.00 Build 0)  -->
<svg version="1.1" id="レイヤー_1" xmlns="http://www.w3.org/2000/svg" xmlns:xlink="http://www.w3.org/1999/xlink" x="0px"
	 y="0px" viewBox="0 0 18 18" style="enable-background:new 0 0 18 18;" xml:space="preserve">
<style type="text/css">
	.st0{fill:#4CAF50;}
	.st1{fill:#FFFFFF;}
	.st2{fill:#2E7D32;}
</style>
<g transform="translate(-6 -6)">
	<path class="st0" d="M23.5,8h-8v14h8c0.3,0,0.5-0.2,0.5-0.5v-13C24,8.2,23.8,8,23.5,8z"/>
	<path class="st1" d="M19,10.5h3.5V12H19V10.5z"/>
	<path class="st1" d="M19,15.5h3.5V17H19V15.5z"/>
	<path class="st1" d="M19,18h3.5v1.5H19V18z"/>
	<path class="st1" d="M19,13h3.5v1.5H19V13z"/>
	<path class="st1" d="M15.5,10.5H18V12h-2.5V10.5z"/>
	<path class="st1" d="M15.5,15.5H18V17h-2.5V15.5z"/>
	<path class="st1" d="M15.5,18H18v1.5h-2.5V18z"/>
	<path class="st1" d="M15.5,13H18v1.5h-2.5V13z"/>
	<path class="st2" d="M16.5,24L6,22V8l10.5-2V24z"/>
	<path class="st1" d="M12.6,18.5l-1.2-2.3c-0.1-0.1-0.1-0.3-0.1-0.5h0c0,0.2-0.1,0.3-0.2,0.5l-1.2,2.3H7.9l2.2-3.5l-2-3.5h1.9l1,2.1
		c0.1,0.2,0.2,0.4,0.2,0.6h0c0-0.1,0.1-0.3,0.2-0.6l1.1-2.1h1.8L12.3,15l2.2,3.5H12.6z"/>
</g>
</svg>
