<?xml version="1.0" encoding="utf-8"?>
<!-- Generator: Adobe Illustrator 23.0.2, SVG Export Plug-In . SVG Version: 6.00 Build 0)  -->
<svg version="1.1" id="レイヤー_1" xmlns="http://www.w3.org/2000/svg" xmlns:xlink="http://www.w3.org/1999/xlink" x="0px"
	 y="0px" viewBox="0 0 18 18" style="enable-background:new 0 0 18 18;" xml:space="preserve">
<style type="text/css">
	.st0{fill:#29B6F6;}
	.st1{fill:#1565C0;}
</style>
<g transform="translate(-1 -9)">
	<g transform="translate(1.391 9.391)">
		<g transform="translate(0 0)">
			<path class="st0" d="M14.4,7.9c0-0.2,0-0.3,0-0.4c0-2.4-1.9-4.3-4.3-4.3c0,0,0,0,0,0c-1.9,0-3.5,1.2-4.1,3
				c-0.4-0.4-1-0.7-1.6-0.7c-1.2,0-2.1,1-2.2,2.2c0,0.1,0,0.2,0,0.3C1,8.3,0,9.5,0,11c0,1.7,1.4,3.1,3.1,3.1h11
				c1.7,0,3.1-1.4,3.1-3.1C17.2,9.4,16,8,14.4,7.9z"/>
		</g>
	</g>
	<g transform="translate(1 9)">
		<g transform="translate(0 0)">
			<path class="st1" d="M14.5,14.9h-11c-1.9,0-3.5-1.6-3.5-3.5c0,0,0,0,0,0C0,9.9,0.9,8.5,2.3,8l0,0c0-1.4,1.1-2.5,2.5-2.5
				c0,0,0,0,0,0c0.5,0,1,0.2,1.4,0.4C7,4.2,8.7,3.1,10.6,3.1c2.6,0,4.7,2.1,4.7,4.7v0.1c1.9,0.4,3.1,2.3,2.7,4.2
				C17.5,13.7,16.1,14.9,14.5,14.9L14.5,14.9z M4.9,6.3C3.9,6.3,3.1,7,3.1,8c0,0,0,0,0,0v0.2l0.1,0.4L2.9,8.7
				C1.6,9,0.8,10.1,0.8,11.3c0,1.5,1.2,2.7,2.7,2.7c0,0,0,0,0,0h11c1.5,0,2.7-1.2,2.7-2.7c0-1.4-1-2.6-2.4-2.7l-0.4,0l0-0.4V7.8
				c0-2.2-1.8-3.9-3.9-3.9C8.8,3.9,7.3,5,6.8,6.7L6.6,7.3L6.1,6.8C5.8,6.5,5.4,6.3,4.9,6.3z"/>
		</g>
	</g>
</g>
</svg>
