<?xml version="1.0" encoding="utf-8"?>
<!-- Generator: Adobe Illustrator 23.0.2, SVG Export Plug-In . SVG Version: 6.00 Build 0)  -->
<svg version="1.1" id="レイヤー_1" xmlns="http://www.w3.org/2000/svg" xmlns:xlink="http://www.w3.org/1999/xlink" x="0px"
	 y="0px" viewBox="0 0 18 18" style="enable-background:new 0 0 18 18;" xml:space="preserve">
<style type="text/css">
	.st0{fill:#CE93D8;}
	.st1{fill:#9C27B0;}
	.st2{fill:#FFFFFF;}
	.st3{fill:#7B1FA2;}
</style>
<g transform="translate(-6 -6)">
	<path class="st0" d="M20.5,16.5c0,0.3,0.2,0.5,0.5,0.5h2.5c0.3,0,0.5-0.2,0.5-0.5v-3c0-0.3-0.2-0.5-0.5-0.5H21
		c-0.3,0-0.5,0.2-0.5,0.5V16.5z"/>
	<path class="st0" d="M20.5,21.5c0,0.3,0.2,0.5,0.5,0.5h2.5c0.3,0,0.5-0.2,0.5-0.5v-3c0-0.3-0.2-0.5-0.5-0.5H21
		c-0.3,0-0.5,0.2-0.5,0.5V21.5z"/>
	<path class="st1" d="M22,8h-6v14h6c0.3,0,0.5-0.2,0.5-0.5v-13C22.5,8.2,22.3,8,22,8z"/>
	<path class="st1" d="M20.5,11.5c0,0.3,0.2,0.5,0.5,0.5h2.5c0.3,0,0.5-0.2,0.5-0.5v-3C24,8.2,23.8,8,23.5,8H21
		c-0.3,0-0.5,0.2-0.5,0.5V11.5z"/>
	<path class="st2" d="M16,18h4.5v1.5H16V18z"/>
	<path class="st2" d="M16,15.5h4.5V17H16V15.5z"/>
	<path class="st2" d="M16,13h4.5v1.5H16V13z"/>
	<path class="st2" d="M16,10.5h4.5V12H16V10.5z"/>
	<path class="st3" d="M16.5,24L6,22V8l10.5-2V24z"/>
	<path class="st2" d="M13.6,18.5h-1.4l-2.5-4.4c-0.1-0.3-0.3-0.4-0.3-0.6h0c0,0.2,0,0.6,0,1.1v3.8H8.1v-7h1.5l2.4,4.2
		c0.1,0.2,0.2,0.4,0.3,0.6h0c0-0.3,0-0.6,0-1v-3.9h1.3L13.6,18.5z"/>
</g>
</svg>
