<?xml version="1.0" encoding="utf-8"?>
<!-- Generator: Adobe Illustrator 23.0.2, SVG Export Plug-In . SVG Version: 6.00 Build 0)  -->
<svg version="1.1" id="レイヤー_1" xmlns="http://www.w3.org/2000/svg" xmlns:xlink="http://www.w3.org/1999/xlink" x="0px"
	 y="0px" viewBox="0 0 18 18" style="enable-background:new 0 0 18 18;" xml:space="preserve">
<style type="text/css">
	.st0{fill:#55ACEE;}
</style>
<path class="st0" d="M18,3.4c-0.7,0.3-1.4,0.5-2.1,0.6c0.8-0.5,1.3-1.2,1.6-2c-0.7,0.4-1.5,0.7-2.3,0.9c-1.4-1.5-3.7-1.5-5.2-0.1
	C9,3.6,8.6,4.9,8.9,6.2c-3-0.2-5.7-1.6-7.6-3.9C0.3,4,0.8,6.2,2.4,7.3c-0.6,0-1.2-0.2-1.7-0.5c0,0,0,0,0,0c0,1.8,1.2,3.3,3,3.6
	c-0.5,0.1-1.1,0.2-1.7,0.1c0.5,1.5,1.9,2.5,3.4,2.6c-1.3,1-2.9,1.6-4.6,1.6c-0.3,0-0.6,0-0.9-0.1c4.9,3.1,11.4,1.7,14.5-3.2
	c1.1-1.7,1.7-3.7,1.7-5.7c0-0.2,0-0.3,0-0.5C16.9,4.8,17.5,4.2,18,3.4z"/>
</svg>
