<?xml version="1.0" encoding="utf-8"?>
<!-- Generator: Adobe Illustrator 23.0.2, SVG Export Plug-In . SVG Version: 6.00 Build 0)  -->
<svg version="1.1" id="レイヤー_1" xmlns="http://www.w3.org/2000/svg" xmlns:xlink="http://www.w3.org/1999/xlink" x="0px"
	 y="0px" viewBox="0 0 18 18" style="enable-background:new 0 0 18 18;" xml:space="preserve">
<style type="text/css">
	.st0{fill:#E01E5A;}
	.st1{fill:#36C5F0;}
	.st2{fill:#2EB67D;}
	.st3{fill:#ECB22E;}
</style>
<g transform="translate(-73.6 -73.6)">
	<g transform="translate(73.6 83.084)">
		<path class="st0" d="M3.8,1.9c0,1-0.8,1.9-1.9,1.9S0,2.9,0,1.9C0,0.8,0.8,0,1.9,0h1.9V1.9z"/>
		<path class="st0" d="M4.7,1.9c0-1,0.8-1.9,1.9-1.9c1,0,1.9,0.8,1.9,1.9c0,0,0,0,0,0v4.7c0,1-0.8,1.9-1.9,1.9c-1,0-1.9-0.8-1.9-1.9
			V1.9z"/>
	</g>
	<g transform="translate(73.6 73.6)">
		<path class="st1" d="M6.6,3.8c-1,0-1.9-0.8-1.9-1.9S5.6,0,6.6,0c1,0,1.9,0.8,1.9,1.9l0,0v1.9H6.6z"/>
		<path class="st1" d="M6.6,4.7c1,0,1.9,0.8,1.9,1.9c0,1-0.8,1.9-1.9,1.9c0,0,0,0,0,0H1.9C0.8,8.5,0,7.7,0,6.6c0-1,0.8-1.9,1.9-1.9
			c0,0,0,0,0,0H6.6z"/>
	</g>
	<g transform="translate(83.084 73.6)">
		<path class="st2" d="M4.7,6.6c0-1,0.8-1.9,1.9-1.9c1,0,1.9,0.8,1.9,1.9c0,1-0.8,1.9-1.9,1.9H4.7V6.6z"/>
		<path class="st2" d="M3.8,6.6c0,1-0.8,1.9-1.9,1.9C0.8,8.5,0,7.7,0,6.6V1.9C0,0.8,0.8,0,1.9,0c1,0,1.9,0.8,1.9,1.9c0,0,0,0,0,0
			V6.6z"/>
	</g>
	<g transform="translate(83.084 83.084)">
		<path class="st3" d="M1.9,4.7c1,0,1.9,0.8,1.9,1.9S2.9,8.5,1.9,8.5C0.8,8.5,0,7.7,0,6.6V4.7H1.9z"/>
		<path class="st3" d="M1.9,3.8C0.8,3.8,0,2.9,0,1.9S0.8,0,1.9,0c0,0,0,0,0,0h4.7c1,0,1.9,0.8,1.9,1.9c0,1-0.8,1.9-1.9,1.9H1.9z"/>
	</g>
</g>
</svg>
