<?xml version="1.0" encoding="utf-8"?>
<!-- Generator: Adobe Illustrator 23.0.2, SVG Export Plug-In . SVG Version: 6.00 Build 0)  -->
<svg version="1.1" id="レイヤー_1" xmlns="http://www.w3.org/2000/svg" xmlns:xlink="http://www.w3.org/1999/xlink" x="0px"
	 y="0px" viewBox="0 0 18 18" style="enable-background:new 0 0 18 18;" xml:space="preserve">
<style type="text/css">
	.st0{fill:#49A0AE;}
	.st1{fill:#DFF1ED;}
	.st2{fill:#B7CAC4;}
</style>
<g transform="translate(-7.9 -7.9)">
	<g transform="translate(7.9 7.9)">
		<g transform="translate(0 0)">
			<path class="st0" d="M0,9c0-5,4-9,9-9s9,4,9,9s-4,9-9,9l0,0C4,18,0,14,0,9z"/>
		</g>
	</g>
	<g transform="translate(11.216 12.551)">
		<g transform="translate(0)">
			<path class="st1" d="M11.4,6.4c0,0.7-0.5,1.2-1.2,1.2c0,0,0,0,0,0h-9C0.5,7.6,0,7.1,0,6.4c0,0,0,0,0,0V1.2C0,0.5,0.5,0,1.2,0
				c0,0,0,0,0,0h9c0.7,0,1.2,0.5,1.2,1.2c0,0,0,0,0,0V6.4z"/>
			<g transform="translate(7.079 7.262)">
				<path class="st1" d="M1.5,1.9C1.5,2,1.3,2,1.2,1.9c0,0,0,0,0,0L0.1,0.3C0,0.2,0,0.1,0.1,0c0,0,0,0,0,0h2.6
					c0.1,0.1,0.1,0.2,0,0.3c0,0,0,0,0,0L1.5,1.9z"/>
			</g>
		</g>
		<g transform="translate(1.705 1.582)">
			<path class="st2" d="M7.9,0.4c0,0.2-0.2,0.4-0.4,0.4c0,0,0,0,0,0H0.4C0.2,0.9,0,0.7,0,0.4c0,0,0,0,0,0l0,0C0,0.2,0.2,0,0.4,0
				c0,0,0,0,0,0h7.1C7.7,0,7.9,0.2,7.9,0.4z"/>
			<g transform="translate(0 1.727)">
				<path class="st2" d="M7.9,0.4c0,0.2-0.2,0.4-0.4,0.4c0,0,0,0,0,0H0.4C0.2,0.9,0,0.7,0,0.4c0,0,0,0,0,0l0,0C0,0.2,0.2,0,0.4,0
					c0,0,0,0,0,0h7.1C7.7,0,7.9,0.2,7.9,0.4C7.9,0.4,7.9,0.4,7.9,0.4z"/>
			</g>
			<g transform="translate(0 3.45)">
				<path class="st2" d="M7.9,0.4c0,0.2-0.2,0.4-0.4,0.4c0,0,0,0,0,0H0.4C0.2,0.9,0,0.7,0,0.4c0,0,0,0,0,0l0,0C0,0.2,0.2,0,0.4,0
					c0,0,0,0,0,0h7.1C7.7,0,7.9,0.2,7.9,0.4L7.9,0.4z"/>
			</g>
		</g>
	</g>
</g>
</svg>
