<?xml version="1.0" encoding="utf-8"?>
<!-- Generator: Adobe Illustrator 23.0.2, SVG Export Plug-In . SVG Version: 6.00 Build 0)  -->
<svg version="1.1" id="レイヤー_1" xmlns="http://www.w3.org/2000/svg" xmlns:xlink="http://www.w3.org/1999/xlink" x="0px"
	 y="0px" viewBox="0 0 18 18" style="enable-background:new 0 0 18 18;" xml:space="preserve">
<style type="text/css">
	.st0{fill:#EA4C89;}
	.st1{fill-rule:evenodd;clip-rule:evenodd;fill:#C32361;}
</style>
<rect width="18" height="18"/>
<circle class="st0" cx="9" cy="9" r="8.6"/>
<path class="st1" d="M9,0C4,0,0,4,0,9s4,9,9,9s9-4,9-9S14,0,9,0z M14.9,4.1c1.1,1.3,1.7,3,1.7,4.8c-1.8-0.3-3.6-0.4-5.3-0.2
	c-0.1-0.1-0.1-0.3-0.2-0.4c-0.2-0.4-0.3-0.8-0.5-1.1C12.3,6.6,13.8,5.5,14.9,4.1z M9,1.3c1.9,0,3.7,0.7,5.1,1.9
	c-1.1,1.3-2.5,2.3-4,2.8C9.2,4.5,8.3,3,7.2,1.5C7.8,1.4,8.4,1.3,9,1.3z M5.7,2c1,1.4,2,2.9,2.8,4.4C6.3,7.1,3.9,7.4,1.5,7.4
	C2,5.1,3.5,3.1,5.7,2z M1.3,9V8.8c2.7,0,5.3-0.4,7.9-1.1C9.4,8.1,9.6,8.6,9.8,9L9.5,9.1c-2.6,0.9-4.8,2.7-6.2,5.1
	C2,12.7,1.3,10.9,1.3,9z M9,16.7c-1.7,0-3.4-0.6-4.7-1.6c1.3-2.3,3.5-4,6-4.8c0,0,0,0,0,0c0.7,1.9,1.3,3.8,1.6,5.8
	C11.1,16.5,10,16.7,9,16.7z M13.3,15.4c-0.3-1.9-0.8-3.7-1.5-5.5c1.6-0.2,3.2-0.1,4.8,0.3C16.2,12.3,15.1,14.2,13.3,15.4z"/>
</svg>
