<?xml version="1.0" encoding="utf-8"?>
<!-- Generator: Adobe Illustrator 23.0.2, SVG Export Plug-In . SVG Version: 6.00 Build 0)  -->
<svg version="1.1" id="レイヤー_1" xmlns="http://www.w3.org/2000/svg" xmlns:xlink="http://www.w3.org/1999/xlink" x="0px"
	 y="0px" viewBox="0 0 18 18" style="enable-background:new 0 0 18 18;" xml:space="preserve">
<style type="text/css">
	.st0{fill:#7E57C2;}
	.st1{fill:#FFFFFF;}
</style>
<g transform="translate(-7 -3)">
	<path class="st0" d="M8.7,19.3V4.7C8.7,3.8,9.5,3,10.4,3c0,0,0,0,0,0h11.1c0.9,0,1.7,0.8,1.7,1.7c0,0,0,0,0,0v14.6
		c0,0.9-0.8,1.7-1.7,1.7c0,0,0,0,0,0H10.4C9.5,21,8.7,20.2,8.7,19.3C8.7,19.3,8.7,19.3,8.7,19.3z"/>
	<path class="st1" d="M17.8,18.5v-7.1c0,0,0.5-1.7-5.7,0.7c0,0,0-6.6,0-6.6l2,0v4.3c0,0,5.7-2.2,5.7,1.7v7.1L17.8,18.5z M19,8h-2.1
		c0.6-0.8,1.1-1.7,1.5-2.6h2.2C20.1,6.4,19.6,7.3,19,8L19,8z M12.1,18.5v-4.1l2,2L12.1,18.5z"/>
</g>
</svg>
