<?xml version="1.0" encoding="utf-8"?>
<!-- Generator: Adobe Illustrator 23.0.2, SVG Export Plug-In . SVG Version: 6.00 Build 0)  -->
<svg version="1.1" id="レイヤー_1" xmlns="http://www.w3.org/2000/svg" xmlns:xlink="http://www.w3.org/1999/xlink" x="0px"
	 y="0px" viewBox="0 0 18 18" style="enable-background:new 0 0 18 18;" xml:space="preserve">
<style type="text/css">
	.st0{fill:#CEC7B7;}
	.st1{fill:#9A988D;}
	.st2{fill:#9E9B8F;}
	.st3{fill:#8B2119;}
	.st4{fill:#DF372D;}
</style>
<g transform="translate(-38.646 -70.36)">
	<path class="st0" d="M40.6,72.8h14c1.1,0,2,0.9,2,2v9.1c0,1.1-0.9,2-2,2h-14c-1.1,0-2-0.9-2-2v-9.1C38.6,73.7,39.5,72.8,40.6,72.8z
		"/>
	<path class="st1" d="M56.6,74.4v10.3c0,0.7-0.5,1.2-1.2,1.2l0,0H54l-6.6-4.8L56.6,74.4z"/>
	<path class="st2" d="M41.5,85.9l15.1-11.1v-0.5L40.9,85.9H41.5z"/>
	<path class="st3" d="M56.7,74v10.7c0,0.1,0,0.2,0,0.3c-0.1,0.5-0.6,0.8-1.1,0.8h-0.9V73.4l0.1,0l0.8-0.6h0.1
		C56.1,72.8,56.7,73.4,56.7,74L56.7,74z"/>
	<path class="st4" d="M55.5,72.8L55.5,72.8l-0.8,0.6l-0.1,0l-6.9,5l-7-5.1L40,72.8h-0.2c-0.7,0-1.2,0.5-1.2,1.2l0,0v10.7
		c0,0.1,0,0.2,0,0.3c0.1,0.5,0.6,0.8,1.1,0.8h0.9v-9.7l5.1,3.7l1.7,1.2l0.3,0.2l1.9-1.4l4.9-3.6l0.1,0l2-1.5V74
		C56.6,73.4,56.1,72.8,55.5,72.8C55.5,72.8,55.5,72.8,55.5,72.8z"/>
</g>
</svg>
