<?xml version="1.0" encoding="utf-8"?>
<!-- Generator: Adobe Illustrator 23.0.2, SVG Export Plug-In . SVG Version: 6.00 Build 0)  -->
<svg version="1.1" id="レイヤー_1" xmlns="http://www.w3.org/2000/svg" xmlns:xlink="http://www.w3.org/1999/xlink" x="0px"
	 y="0px" viewBox="0 0 18 18" style="enable-background:new 0 0 18 18;" xml:space="preserve">
<style type="text/css">
	.st0{fill:#B3E5FC;}
	.st1{fill:#3F51B5;}
</style>
<g transform="translate(-2 -9)">
	<path class="st0" d="M10.2,19.6c0,2.3-1.8,4.1-4.1,4.1c-2.3,0-4.1-1.8-4.1-4.1c0-2.3,1.8-4.1,4.1-4.1h0
		C8.4,15.5,10.2,17.4,10.2,19.6z"/>
	<path class="st0" d="M15.9,17.2c0,2.7-2.2,4.9-4.9,4.9s-4.9-2.2-4.9-4.9s2.2-4.9,4.9-4.9C13.7,12.3,15.9,14.5,15.9,17.2
		C15.9,17.2,15.9,17.2,15.9,17.2z"/>
	<path class="st0" d="M20,20.2c0,1.9-1.6,3.5-3.5,3.5c-1.9,0-3.5-1.6-3.5-3.5c0-1.9,1.6-3.5,3.5-3.5C18.4,16.8,20,18.3,20,20.2
		C20,20.2,20,20.2,20,20.2z"/>
	<path class="st0" d="M6.1,19.6h10.2v4.1H6.1V19.6z"/>
	<path class="st1" d="M10.2,16h1.6V20h-1.6V16z"/>
	<path class="st1" d="M11,22.1l2.5-2.9H8.5L11,22.1z"/>
</g>
</svg>
