<?xml version="1.0" encoding="utf-8"?>
<!-- Generator: Adobe Illustrator 23.0.2, SVG Export Plug-In . SVG Version: 6.00 Build 0)  -->
<svg version="1.1" id="レイヤー_1" xmlns="http://www.w3.org/2000/svg" xmlns:xlink="http://www.w3.org/1999/xlink" x="0px"
	 y="0px" viewBox="0 0 18 18" style="enable-background:new 0 0 18 18;" xml:space="preserve">
<style type="text/css">
	.st0{fill:#00BF6F;}
</style>
<path class="st0" d="M15.9,9.9c-0.2,0-0.3,0-0.5,0.1c-0.6-2.5-2.7-4.4-5.2-4.8c-0.1,0-0.2,0-0.3,0l0,0c-0.1-0.8,0.3-1.5,1-2
	l-0.1-0.4c0,0-1.8,0.6-2,2.1c-0.1-0.4-0.9-0.9-1.3-1L7.2,4.1c0.4,0.2,0.6,0.6,0.7,1l0,0C5.3,5.6,3.3,7.5,2.6,9.9
	c-1.1-0.3-2.3,0.4-2.6,1.6s0.4,2.3,1.6,2.6c0.4,0.1,0.9,0.1,1.3-0.1c0.2,0.5,0.4,0.9,0.7,1.3l1.8-1.2l0,0c-0.5-0.7-0.8-1.5-0.8-2.4
	c-0.1-0.9,0.2-1.8,0.8-2.5c1-0.9,2.5-0.8,3.3,0.2c0.1,0.1,0.1,0.2,0.2,0.3h0.2c0.7-1.1,2.2-1.4,3.3-0.7c0.1,0.1,0.2,0.1,0.3,0.2
	c0.6,0.7,0.9,1.6,0.8,2.5c0,0.8-0.3,1.7-0.8,2.4l0,0l1.8,1.2c0.3-0.4,0.5-0.8,0.7-1.3c1.1,0.4,2.3-0.1,2.8-1.2
	c0.4-1.1-0.1-2.3-1.2-2.8C16.4,9.9,16.1,9.9,15.9,9.9L15.9,9.9z M2.1,12.6c-0.3,0-0.6-0.3-0.6-0.6c0-0.3,0.3-0.6,0.6-0.6
	c0.1,0,0.3,0,0.4,0.1c0,0.3,0,0.7,0.1,1C2.4,12.6,2.2,12.6,2.1,12.6L2.1,12.6z M15.9,12.6c-0.2,0-0.3-0.1-0.4-0.2
	c0-0.3,0.1-0.7,0.1-1c0.3-0.2,0.7-0.1,0.9,0.2c0.2,0.3,0.1,0.7-0.2,0.9C16.2,12.6,16.1,12.6,15.9,12.6z"/>
</svg>
