<?xml version="1.0" encoding="utf-8"?>
<!-- Generator: Adobe Illustrator 23.0.2, SVG Export Plug-In . SVG Version: 6.00 Build 0)  -->
<svg version="1.1" id="レイヤー_1" xmlns="http://www.w3.org/2000/svg" xmlns:xlink="http://www.w3.org/1999/xlink" x="0px"
	 y="0px" viewBox="0 0 18 18" style="enable-background:new 0 0 18 18;" xml:space="preserve">
<style type="text/css">
	.st0{fill:#01579B;}
	.st1{fill:#FFFFFF;}
</style>
<g transform="translate(-6 -6)">
	<path class="st0" d="M24,21.5c0,1.4-1.1,2.5-2.5,2.5h-13C7.1,24,6,22.9,6,21.5v-13C6,7.1,7.1,6,8.5,6h13C22.9,6,24,7.1,24,8.5V21.5
		z"/>
	<path class="st1" d="M19,20.4c0,0,0,0.1-0.1,0.1c-1,0.7-2.2,1-3.5,0.9c-2.9,0-2.9-3.2-2.9-3.6l0-3.9h-1.3c-0.1,0-0.2-0.1-0.2-0.2
		v-1.6c0-0.1,0-0.1,0.1-0.2c0,0,2.6-1,2.6-3.5c0-0.1,0.1-0.2,0.2-0.2c0,0,0,0,0,0h1.5c0.1,0,0.2,0.1,0.2,0.2c0,0,0,0,0,0V12h2.8
		c0.1,0,0.2,0.1,0.2,0.2v1.7c0,0.1-0.1,0.2-0.2,0.2h-2.8v3.9c0.1,0.7,0.7,1.3,1.4,1.3c0.7,0,1.3-0.2,1.9-0.5c0.1,0,0.1,0,0.2,0
		c0.1,0,0.1,0.1,0.1,0.1V20.4z"/>
</g>
</svg>
