<?xml version="1.0" encoding="utf-8"?>
<!-- Generator: Adobe Illustrator 23.0.2, SVG Export Plug-In . SVG Version: 6.00 Build 0)  -->
<svg version="1.1" id="レイヤー_1" xmlns="http://www.w3.org/2000/svg" xmlns:xlink="http://www.w3.org/1999/xlink" x="0px"
	 y="0px" viewBox="0 0 18 18" style="enable-background:new 0 0 18 18;" xml:space="preserve">
<g transform="translate(-4.079 -4.079)">
	<path d="M13.1,5.7c2.4,0,2.7,0,3.6,0.1c0.6,0,1.1,0.1,1.7,0.3c0.8,0.3,1.4,0.9,1.7,1.7c0.2,0.5,0.3,1.1,0.3,1.7
		c0,0.9,0.1,1.2,0.1,3.6s0,2.7-0.1,3.6c0,0.6-0.1,1.1-0.3,1.7c-0.3,0.8-0.9,1.4-1.7,1.7c-0.5,0.2-1.1,0.3-1.7,0.3
		c-0.9,0-1.2,0.1-3.6,0.1s-2.7,0-3.6-0.1c-0.6,0-1.1-0.1-1.7-0.3c-0.8-0.3-1.4-0.9-1.7-1.7c-0.2-0.5-0.3-1.1-0.3-1.7
		c0-0.9-0.1-1.2-0.1-3.6s0-2.7,0.1-3.6c0-0.6,0.1-1.1,0.3-1.7C6.4,7,7,6.4,7.8,6.1c0.5-0.2,1.1-0.3,1.7-0.3
		C10.4,5.7,10.7,5.7,13.1,5.7 M13.1,4.1c-2.4,0-2.8,0-3.7,0.1c-0.7,0-1.5,0.2-2.2,0.4C6,5,5,6,4.6,7.2C4.3,7.9,4.1,8.6,4.1,9.4
		c0,1-0.1,1.3-0.1,3.7s0,2.8,0.1,3.7c0,0.7,0.2,1.5,0.4,2.2C5,20.2,6,21.1,7.2,21.6C7.9,21.9,8.6,22,9.4,22c1,0,1.3,0.1,3.7,0.1
		s2.8,0,3.7-0.1c0.7,0,1.5-0.2,2.2-0.4c1.2-0.5,2.2-1.4,2.6-2.6c0.3-0.7,0.4-1.4,0.4-2.2c0-1,0.1-1.3,0.1-3.7s0-2.8-0.1-3.7
		c0-0.7-0.2-1.5-0.4-2.2C21.1,6,20.2,5,19,4.6c-0.7-0.3-1.4-0.4-2.2-0.4C15.8,4.1,15.5,4.1,13.1,4.1L13.1,4.1z"/>
	<path d="M13.1,8.5c-2.6,0-4.6,2.1-4.6,4.6c0,2.6,2.1,4.6,4.6,4.6c2.6,0,4.6-2.1,4.6-4.6l0,0C17.7,10.5,15.6,8.5,13.1,8.5z
		 M13.1,16.1c-1.7,0-3-1.3-3-3s1.3-3,3-3s3,1.3,3,3S14.7,16.1,13.1,16.1z"/>
	<circle cx="17.9" cy="8.3" r="1.1"/>
</g>
</svg>
