<?xml version="1.0" encoding="utf-8"?>
<!-- Generator: Adobe Illustrator 23.0.2, SVG Export Plug-In . SVG Version: 6.00 Build 0)  -->
<svg version="1.1" id="レイヤー_1" xmlns="http://www.w3.org/2000/svg" xmlns:xlink="http://www.w3.org/1999/xlink" x="0px"
	 y="0px" viewBox="0 0 18 18" style="enable-background:new 0 0 18 18;" xml:space="preserve">
<style type="text/css">
	.st0{fill:#1A237E;}
	.st1{fill:#0D47A1;}
	.st2{fill:#1E88E5;}
	.st3{fill:#FFFFFF;}
</style>
<g transform="translate(-6 -6)">
	<path class="st0" d="M18,19.6v-1c2,0,3.7-1.6,3.7-3.6S20,11.4,18,11.4v-1c2.6,0,4.7,2.1,4.7,4.6S20.6,19.6,18,19.6
		C18,19.6,18,19.6,18,19.6z"/>
	<path class="st1" d="M23.8,15c0,1.1-0.9,2-2,2s-2-0.9-2-2s0.9-2,2-2C22.9,13,23.7,13.9,23.8,15z"/>
	<path class="st1" d="M19.2,11c0,1.1-0.9,2-2,2s-2-0.9-2-2s0.9-2,2-2C18.4,9,19.2,9.9,19.2,11z"/>
	<path class="st1" d="M19.2,19c0,1.1-0.9,2-2,2s-2-0.9-2-2s0.9-2,2-2C18.4,17,19.2,17.9,19.2,19z"/>
	<path class="st2" d="M16.8,24L6.2,22V8l10.5-2V24z"/>
	<path class="st3" d="M13.5,17.8c-0.1,0.3-0.4,0.5-0.6,0.7c-0.3,0.2-0.6,0.3-0.9,0.3C11.6,19,11.2,19,10.9,19c-0.4,0-0.8,0-1.1-0.1
		c-0.3,0-0.7-0.1-0.9-0.3V17c0.3,0.2,0.6,0.4,0.9,0.5c0.3,0.1,0.7,0.2,1.1,0.2c0.2,0,0.4,0,0.6,0c0.1,0,0.3-0.1,0.4-0.2
		c0.1-0.1,0.2-0.1,0.2-0.2c0.1-0.1,0.1-0.2,0.1-0.3c0-0.1,0-0.3-0.1-0.4c-0.1-0.1-0.2-0.2-0.4-0.3c-0.2-0.1-0.3-0.2-0.5-0.2
		c-0.2-0.1-0.4-0.2-0.6-0.3C10,15.6,9.5,15.3,9.2,15c-0.5-0.6-0.5-1.5-0.1-2.2c0.1-0.3,0.4-0.5,0.6-0.6c0.3-0.2,0.6-0.3,0.9-0.4
		c0.4-0.1,0.7-0.2,1.1-0.1c0.3,0,0.7,0,1,0c0.3,0,0.5,0.1,0.8,0.2v1.5c-0.1-0.1-0.3-0.2-0.4-0.2L12.6,13c-0.1,0-0.3,0-0.4-0.1
		c-0.1,0-0.3-0.1-0.4,0c-0.2,0-0.3,0-0.5,0c-0.1,0-0.3,0.1-0.4,0.1c-0.1,0.1-0.2,0.1-0.2,0.2c-0.1,0.1-0.1,0.2-0.1,0.3
		c0,0.1,0,0.2,0.1,0.4c0.1,0.1,0.1,0.2,0.2,0.2c0.1,0.1,0.3,0.2,0.4,0.2c0.2,0.1,0.4,0.2,0.6,0.2c0.3,0.1,0.5,0.2,0.8,0.4
		c0.2,0.1,0.4,0.3,0.6,0.5c0.2,0.2,0.3,0.4,0.4,0.6c0.1,0.2,0.2,0.5,0.2,0.8C13.8,17.2,13.7,17.5,13.5,17.8z"/>
</g>
</svg>
