<?xml version="1.0" encoding="utf-8"?>
<!-- Generator: Adobe Illustrator 23.0.2, SVG Export Plug-In . SVG Version: 6.00 Build 0)  -->
<svg version="1.1" id="レイヤー_1" xmlns="http://www.w3.org/2000/svg" xmlns:xlink="http://www.w3.org/1999/xlink" x="0px"
	 y="0px" viewBox="0 0 18 18" style="enable-background:new 0 0 18 18;" xml:space="preserve">
<style type="text/css">
	.st0{fill:#42CE9F;}
	.st1{fill:#FFFFFF;}
</style>
<g transform="translate(-136.859 -214.515)">
	<path class="st0" d="M139.9,214.5h12c1.7,0,3,1.3,3,3v12c0,1.7-1.3,3-3,3h-12c-1.7,0-3-1.3-3-3v-12
		C136.9,215.9,138.2,214.5,139.9,214.5z"/>
	<path class="st1" d="M147.2,221.4c-0.8-0.5-1.8-0.8-2.7-0.9v-1.4h-1.8v7.5c0,0.3,0.1,0.7,0.2,1c0.2,0.2,0.4,0.3,0.7,0.3h0.7
		c1,0,2.1-0.3,3-0.7c1.6-0.9,2.1-2.9,1.2-4.4C148.3,222.2,147.8,221.7,147.2,221.4L147.2,221.4z M146.3,225.7
		c-0.6,0.3-1.2,0.4-1.8,0.4v-3.8c0.5,0.1,1,0.2,1.5,0.4c0.7,0.2,1.2,0.8,1.3,1.6C147.2,224.9,146.8,225.5,146.3,225.7L146.3,225.7z"
		/>
</g>
</svg>
