<?xml version="1.0" encoding="utf-8"?>
<!-- Generator: Adobe Illustrator 23.0.2, SVG Export Plug-In . SVG Version: 6.00 Build 0)  -->
<svg version="1.1" id="レイヤー_1" xmlns="http://www.w3.org/2000/svg" xmlns:xlink="http://www.w3.org/1999/xlink" x="0px"
	 y="0px" viewBox="0 0 18 18" style="enable-background:new 0 0 18 18;" xml:space="preserve">
<style type="text/css">
	.st0{fill:#FFFFFF;}
	.st1{fill:#C7C7C7;}
	.st2{fill:#4483EF;}
	.st3{fill:#3664D0;}
</style>
<g transform="translate(-119.883 -119.891)">
	<path class="st0" d="M124.7,120.5c0.1,0,0.3,0,0.4,0c0.2,0.1,0.3,0.3,0.4,0.5c0,0.1,0,0.3-0.1,0.4c-0.1,0.3-0.4,0.4-0.7,0.3
		c-0.3-0.1-0.5-0.3-0.5-0.6C124.2,120.9,124.4,120.6,124.7,120.5z"/>
	<path class="st0" d="M132.8,120.5c0.1,0,0.3,0,0.4,0c0.2,0.1,0.4,0.3,0.4,0.5c0,0.2-0.1,0.4-0.2,0.5c-0.2,0.2-0.6,0.3-0.9,0
		c-0.1-0.1-0.1-0.1-0.1-0.2c-0.1-0.1-0.1-0.3,0-0.4C132.4,120.8,132.6,120.6,132.8,120.5z"/>
	<path class="st0" d="M132,130.2c0.3,0,0.6,0,1,0c0,1.3,0,2.6,0,3.8h-1C132,132.8,132,131.5,132,130.2z"/>
	<g transform="translate(120.743 119.891)">
		<g transform="translate(0 0)">
			<path class="st1" d="M0.8,0.1C1,0,1.2,0,1.4,0H15c0.7,0,1.3,0.6,1.3,1.3c0,0,0,0,0,0c0,0.4,0,0.9,0,1.3c-0.1-0.1-0.3-0.1-0.5-0.1
				H0.5c-0.2,0-0.3,0-0.5,0.1c0-0.5,0-0.9,0-1.4C0,0.8,0.3,0.3,0.8,0.1z M3.9,0.7C3.6,0.7,3.4,1,3.4,1.3c0,0.3,0.2,0.6,0.5,0.6
				C4.2,2,4.5,1.8,4.6,1.6c0.1-0.1,0.1-0.3,0.1-0.4c0-0.2-0.2-0.4-0.4-0.5C4.2,0.6,4,0.6,3.9,0.7L3.9,0.7z M12.1,0.7
				c-0.2,0.1-0.4,0.2-0.5,0.5c0,0.1,0,0.3,0,0.4c0.1,0.3,0.5,0.5,0.8,0.3c0.1,0,0.1-0.1,0.2-0.1c0.1-0.1,0.2-0.3,0.2-0.5
				c0-0.2-0.2-0.4-0.4-0.5C12.3,0.6,12.2,0.6,12.1,0.7L12.1,0.7z"/>
		</g>
		<path class="st1" d="M12,6.4c0.1,0,0.2,0,0.2,0c0,1.3,0,2.6,0,3.9v0c-0.3,0-0.6,0-1,0v0c0-0.9,0-1.8,0-2.7C10.6,7.8,10,8,9.3,8.3
			c0-0.3,0-0.6,0-0.9C10.2,7.1,11.1,6.8,12,6.4z"/>
		<path class="st1" d="M4.1,6.9C4.5,6.6,5,6.4,5.5,6.4c0.5,0,1,0.1,1.5,0.3c0.3,0.2,0.6,0.5,0.8,0.9C7.9,8,8,8.4,7.9,8.8
			c-0.1,0.6-0.6,1.2-1.2,1.4c0.1,0,0.2,0.1,0.2,0.1c0,0-0.1,0-0.2,0c-0.7,0-1.3,0-2,0c0-0.1,0-0.3,0-0.4c0.5,0,1,0,1.4-0.2
			C6.6,9.5,6.9,9.2,7,8.8C7,8.4,7,8,6.7,7.7C6.6,7.4,6.3,7.2,6,7.2c-0.4-0.1-0.8,0-1.2,0.2C4.4,7.7,4.2,8.1,4.3,8.5
			c-0.3,0-0.6,0-0.9,0c0-0.2,0-0.3,0.1-0.5C3.5,7.6,3.8,7.2,4.1,6.9z"/>
	</g>
	<g transform="translate(119.916 122.457)">
		<path class="st2" d="M0.8,0.1C1,0,1.1,0,1.3,0h15.3c0.2,0,0.3,0,0.5,0.1c0.5,0.2,0.8,0.6,0.8,1c-0.1-0.3-0.3-0.6-0.6-0.8
			c-0.2-0.1-0.5-0.2-0.7-0.2c-5.1,0-10.3,0-15.4,0c-0.4,0-0.8,0.2-1,0.5C0.2,0.7,0.1,0.9,0,1C0.1,0.6,0.4,0.2,0.8,0.1z"/>
		<path class="st2" d="M12.1,7.7L12.1,7.7L12.1,7.7c0,1.3,0,2.6,0,3.9h1c0-1.3,0-2.6,0-3.8v0h0c0.1,0,0.3,0,0.4,0c1.2,0,2.4,0,3.6,0
			c0.1,2,0.3,4,0.4,6.1c0,0.2,0,0.5,0,0.7l0,0c-0.1,0.1-0.1,0.1-0.1,0.2c-0.2,0.4-0.6,0.6-1.1,0.6c-4.8,0-9.6,0-14.5,0
			c-0.2,0-0.3,0-0.5,0C1,15.2,0.7,15,0.6,14.7c0-0.1-0.1-0.1-0.1-0.2l0,0c0-0.3,0-0.6,0-0.9c0.1-1.9,0.3-3.9,0.4-5.8
			c1.6,0,3.2,0,4.8,0c0,0.1,0,0.2,0,0.3c0.5,0,1,0,1.5,0.1c0.3,0.1,0.6,0.4,0.7,0.7C8,9.3,8,9.7,7.8,10c-0.1,0.3-0.4,0.6-0.8,0.7
			c-0.4,0.1-0.9,0.1-1.3-0.1c-0.3-0.1-0.6-0.4-0.7-0.7C5,9.8,5,9.6,5,9.5c-0.3,0-0.6,0-0.9,0c0,0.8,0.5,1.6,1.3,1.9
			c0.5,0.2,1,0.2,1.6,0.2c0.5-0.1,1-0.3,1.4-0.7c0.3-0.4,0.5-0.8,0.5-1.3c0-0.5-0.1-0.9-0.4-1.3C8.3,8,8.1,7.9,7.9,7.7
			c0.1,0,0.2,0,0.3,0h3.4C11.8,7.7,11.9,7.7,12.1,7.7z"/>
	</g>
	<g transform="translate(119.883 122.56)">
		<path class="st3" d="M0.3,0.5C0.6,0.2,0.9,0,1.3,0c5.1,0,10.3,0,15.4,0c0.2,0,0.5,0.1,0.7,0.2C17.7,0.4,17.9,0.7,18,1
			c0,0.1,0,0.2,0,0.4c-0.3,2.1-0.6,4.2-0.8,6.3c-1.2,0-2.3,0-3.5,0c-0.2,0-0.4,0-0.6,0h0c0-1.3,0-2.6,0-3.9c-0.1,0-0.2,0-0.2,0
			c-0.9,0.3-1.8,0.6-2.7,0.9c0,0.3,0,0.6,0,0.9c0.6-0.2,1.3-0.4,1.9-0.6c0,0.9,0,1.8,0,2.7h0c-1.3,0-2.7,0-4,0c-0.1,0-0.1,0-0.2,0
			c-0.1,0-0.2-0.1-0.2-0.1c0.6-0.2,1-0.8,1.2-1.4c0-0.4,0-0.8-0.2-1.2C8.5,4.6,8.2,4.3,7.8,4.1C7.4,3.8,6.9,3.7,6.4,3.8
			c-0.5,0-1,0.2-1.4,0.5C4.6,4.5,4.4,4.9,4.2,5.3c0,0.2-0.1,0.3-0.1,0.5c0.3,0,0.6,0,0.9,0c0-0.4,0.2-0.8,0.5-1.1
			C6,4.5,6.4,4.5,6.8,4.5c0.3,0,0.6,0.2,0.8,0.4c0.2,0.3,0.3,0.7,0.2,1.1C7.8,6.5,7.5,6.9,7.1,7c-0.5,0.2-1,0.2-1.4,0.2h0
			c0,0.1,0,0.3,0,0.4c-1.6,0-3.2,0-4.8,0C0.6,5.6,0.3,3.5,0,1.5c0-0.2,0-0.4,0-0.6C0.1,0.7,0.2,0.6,0.3,0.5z"/>
		<path class="st3" d="M0.5,14.4c0,0.1,0.1,0.1,0.1,0.2c0.2,0.3,0.5,0.5,0.8,0.6c0.1,0,0.3,0,0.5,0c4.8,0,9.6,0,14.5,0
			c0.4,0,0.9-0.2,1.1-0.6c0-0.1,0.1-0.2,0.1-0.2c-0.1,0.4-0.4,0.7-0.8,0.9c-0.2,0.1-0.5,0.1-0.7,0.1H1.9c-0.2,0-0.4,0-0.6-0.1
			C0.9,15.1,0.6,14.8,0.5,14.4z"/>
	</g>
</g>
</svg>
