<?xml version="1.0" encoding="utf-8"?>
<!-- Generator: Adobe Illustrator 23.0.2, SVG Export Plug-In . SVG Version: 6.00 Build 0)  -->
<svg version="1.1" id="レイヤー_1" xmlns="http://www.w3.org/2000/svg" xmlns:xlink="http://www.w3.org/1999/xlink" x="0px"
	 y="0px" viewBox="0 0 18 18" style="enable-background:new 0 0 18 18;" xml:space="preserve">
<style type="text/css">
	.st0{fill:#CFD8DC;}
	.st1{fill:#546E7A;}
	.st2{fill:#2196F3;}
	.st3{fill:#3F51B5;}
	.st4{fill:#FFFFFF;}
</style>
<g transform="translate(-6 -6)">
	<path class="st0" d="M10.5,9.5H23c0.6,0,1,0.4,1,1V23c0,0.6-0.4,1-1,1h-7L10.5,9.5z"/>
	<path class="st1" d="M16.4,20.4L16,19.5l0.4-0.2c1.9-1.1,3.5-2.6,4.5-4.6l0.2-0.4l0.9,0.4l-0.2,0.4c-1.1,2.1-2.9,3.8-5,5L16.4,20.4
		z"/>
	<path class="st1" d="M22,20l-0.4-0.2c-1.7-1-3.1-2.3-4.2-3.8l0.8-0.6c1.1,1.4,2.4,2.6,3.9,3.5l0.4,0.2L22,20z"/>
	<path class="st1" d="M16,14h7v1h-7V14z"/>
	<path class="st1" d="M19,13h1v2h-1V13z"/>
	<path class="st2" d="M19.5,20.5H7c-0.6,0-1-0.4-1-1V7c0-0.6,0.4-1,1-1h7L19.5,20.5z"/>
	<path class="st3" d="M16,24l-1.5-3.5h5L16,24z"/>
	<path class="st4" d="M12.6,15h-2.2l-0.5,1.5H8.5l2.4-6.5h1.2l2.4,6.5h-1.4L12.6,15z M10.7,14h1.6l-0.8-2.4L10.7,14z"/>
</g>
</svg>
