<?xml version="1.0" encoding="utf-8"?>
<!-- Generator: Adobe Illustrator 23.0.2, SVG Export Plug-In . SVG Version: 6.00 Build 0)  -->
<svg version="1.1" id="レイヤー_1" xmlns="http://www.w3.org/2000/svg" xmlns:xlink="http://www.w3.org/1999/xlink" x="0px"
	 y="0px" viewBox="0 0 18 18" style="enable-background:new 0 0 18 18;" xml:space="preserve">
<style type="text/css">
	.st0{fill:#FF8A65;}
	.st1{fill:#FBE9E7;}
	.st2{fill:#E64A19;}
	.st3{fill:#FFFFFF;}
</style>
<g transform="translate(-6 -6)">
	<path class="st0" d="M23.5,8h-8v14h8c0.3,0,0.5-0.2,0.5-0.5v-13C24,8.2,23.8,8,23.5,8z"/>
	<g transform="translate(15 9.5)">
		<rect y="8" class="st1" width="7" height="1"/>
		<rect y="10" class="st1" width="7" height="1"/>
		<path class="st1" d="M3,1C1.3,1,0,2.3,0,4s1.3,3,3,3s3-1.3,3-3H3V1z"/>
		<path class="st1" d="M4,0v3h3C7,1.3,5.7,0,4,0z"/>
	</g>
	<path class="st2" d="M16.5,24L6,22V8l10.5-2V24z"/>
	<path class="st3" d="M11.4,11.5H9v7h1.5v-2.4h0.8c0.7,0,1.4-0.2,2-0.7c0.5-0.4,0.8-1.1,0.7-1.7C14,12.2,13.1,11.5,11.4,11.5z
		 M11.1,14.9h-0.6v-2.2h0.6c0.8,0,1.2,0.4,1.2,1.1C12.4,14.5,12,14.9,11.1,14.9z"/>
</g>
</svg>
