<?xml version="1.0" encoding="utf-8"?>
<!-- Generator: Adobe Illustrator 23.0.2, SVG Export Plug-In . SVG Version: 6.00 Build 0)  -->
<svg version="1.1" id="レイヤー_1" xmlns="http://www.w3.org/2000/svg" xmlns:xlink="http://www.w3.org/1999/xlink" x="0px"
	 y="0px" viewBox="0 0 18 18" style="enable-background:new 0 0 18 18;" xml:space="preserve">
<path d="M6.2,17.8c0.3-0.1,0.5-0.4,0.5-0.7v-2.1c0-0.1,0-0.2,0-0.2h0H5.2c-0.5,0-1.1-0.2-1.3-0.7c-0.3-0.5-0.4-1.4-1.1-1.8
	C2.7,12.1,2.8,12,3,12c0.4,0.1,0.8,0.4,1.1,0.8c0.3,0.5,0.8,0.8,1.3,0.8c0.6,0.1,1.2,0,1.8-0.2c0.3-0.5,0.8-0.9,1.4-1v0
	c-2.2-0.1-3.6-0.8-4.3-1.9c-1.1,0-2.3,0.1-3.4,0.3c0-0.1,0-0.3-0.1-0.4C1.9,10.1,3,10,4.1,10C4.1,9.9,4,9.8,4,9.7
	c-1.1-0.1-2.1,0-3.2,0c0-0.1,0-0.3,0-0.4c1-0.1,2.1-0.1,3.1,0c0-0.2,0-0.4-0.1-0.6c0-0.7,0.2-1.4,0.7-2C4.3,6.1,4.1,4.7,4.6,4.1
	c0.8,0,1.6,0.3,2.2,0.8C7.5,4.7,8.2,4.5,9,4.5c0.8,0,1.5,0.1,2.2,0.4c0.6-0.5,1.4-0.8,2.2-0.8c0.6,0.5,0.3,2,0.1,2.6
	c0.4,0.6,0.7,1.3,0.6,2c0,0.2,0,0.4,0,0.6c1.1-0.1,2.1,0,3.2,0c0,0.1,0,0.3,0,0.4c-1.1-0.1-2.2-0.1-3.3,0c0,0.1-0.1,0.3-0.1,0.4
	c1.1,0,2.2,0.1,3.3,0.3c0,0.1,0,0.3-0.1,0.4c-1.1-0.2-2.3-0.3-3.5-0.3c-0.7,1.1-2,1.9-4.2,1.9v0c1,0,2,1.5,2,2.6V17
	c0,0.3,0.2,0.6,0.5,0.7c4.7-1.6,7.3-6.6,5.7-11.4S10.9-0.9,6.2,0.7S-1.1,7.3,0.4,12C1.3,14.7,3.5,16.9,6.2,17.8L6.2,17.8z"/>
</svg>
