<?xml version="1.0" encoding="utf-8"?>
<!-- Generator: Adobe Illustrator 23.0.2, SVG Export Plug-In . SVG Version: 6.00 Build 0)  -->
<svg version="1.1" id="レイヤー_1" xmlns="http://www.w3.org/2000/svg" xmlns:xlink="http://www.w3.org/1999/xlink" x="0px"
	 y="0px" viewBox="0 0 18 18" style="enable-background:new 0 0 18 18;" xml:space="preserve">
<style type="text/css">
	.st0{fill:#13202F;}
	.st1{fill:#F03748;}
</style>
<g transform="translate(-335.905 -212.598)">
	<path class="st0" d="M350.1,213.7c-1.4-1.4-3.7-1.4-5.2,0c-0.6,0.6-1,1.5-1.1,2.4v3.5c0,0.2,0.1,0.3,0.3,0.3l0,0h3.2
		c1,0.1,2-0.3,2.7-1.1C351.5,217.4,351.5,215.1,350.1,213.7z"/>
	<path class="st1" d="M337,216.4c-1.4,1.4-1.4,3.7,0,5.2c0.6,0.6,1.5,1,2.4,1.1h3.5c0.2,0,0.3-0.1,0.3-0.3c0,0,0,0,0,0v-3.2
		c0.1-1-0.3-2-1.1-2.7C340.7,215,338.4,215,337,216.4z"/>
	<path class="st1" d="M339.8,229.5c1.4,1.4,3.7,1.4,5.2,0c0.6-0.6,1-1.5,1.1-2.4v-3.5c0-0.2-0.1-0.3-0.3-0.3h0h-3.2
		c-1-0.1-2,0.3-2.7,1.1c-1.5,1.4-1.7,3.6-0.3,5.1C339.5,229.5,339.6,229.6,339.8,229.5z"/>
	<path class="st1" d="M352.8,226.8c1.4-1.4,1.4-3.7,0-5.2c-0.6-0.6-1.5-1-2.4-1.1h-3.5c-0.2,0-0.3,0.1-0.3,0.3v0v3.2
		c-0.1,1,0.3,2,1.1,2.7C349.1,228.2,351.4,228.2,352.8,226.8z"/>
</g>
</svg>
