<?xml version="1.0" encoding="utf-8"?>
<!-- Generator: Adobe Illustrator 23.0.2, SVG Export Plug-In . SVG Version: 6.00 Build 0)  -->
<svg version="1.1" id="レイヤー_1" xmlns="http://www.w3.org/2000/svg" xmlns:xlink="http://www.w3.org/1999/xlink" x="0px"
	 y="0px" viewBox="0 0 18 18" style="enable-background:new 0 0 18 18;" xml:space="preserve">
<style type="text/css">
	.st0{fill:none;}
	.st1{fill:#74BB44;}
</style>
<g transform="translate(0 -0.001)">
	<path class="st0" d="M13,7.5c-0.7,0-0.9,0.6-1,1.1c0.2,0,0.5-0.1,0.7,0c0.4,0,0.8,0.1,1.2,0.3C13.9,8.3,13.8,7.5,13,7.5z"/>
	<path class="st1" d="M3,3.5h1.7c0.1,0,0.2-0.1,0.2-0.2v0c0,0,0-1.4,0-1.9l0,0c0-0.3,0.1-0.6,0.2-0.9l0.1-0.1c0,0,0,0,0,0L1.8,3.8
		c0,0,0,0,0,0l0.2-0.1C2.3,3.5,2.6,3.5,3,3.5z"/>
	<path class="st1" d="M16.1,3.1c-0.1-0.5-0.4-1-0.9-1.2c-0.8-0.2-1.5-0.4-2.3-0.4c-0.8-0.1-1.6-0.1-2.5-0.1C10.3,0.9,10,0.5,9.6,0.3
		c-1-0.3-2-0.4-3.1-0.2C6.2,0.2,5.8,0.4,5.6,0.7C5.5,0.9,5.4,1.2,5.4,1.5c0,0.2,0,0.7,0,1.1c0,0.4,0,0.8,0,0.8C5.4,3.7,5.1,4,4.7,4
		H3.1C2.8,4,2.5,4,2.2,4.1C2,4.2,1.9,4.3,1.7,4.5C1.5,4.8,1.4,5.2,1.5,5.6c0,0.3,0,0.6,0.1,0.9c0.2,1.6,0.6,3.2,1,4.7
		c0.1,0.3,0.4,0.6,0.7,0.7c1.2,0.4,2.3,0.7,3.6,0.9c0.9,0.1,1.4,0.3,1.7-0.3c0,0,0.1-0.2,0.2-0.4c0.2-0.7,0.3-1.4,0.3-2.2
		c0,0,0,0,0,0c0,0,0,0,0,0c0,0,0,0,0,0c0,0.4-0.1,1.8,1,2.1c0.7,0.2,1.4,0.3,2.1,0.4c0.8,0.1,1.4,0.4,1.4,2.4c0,1.2-0.3,1.4-1.6,1.4
		c-1.1,0-1.5,0-1.5-0.8c0-0.7,0.7-0.6,1.2-0.6c0.2,0,0.1-0.2,0.1-0.6s0.3-0.7,0-0.7c-1.8,0-2.8,0-2.8,2.2c0,2,0.8,2.4,3.3,2.4
		c2,0,2.7-0.1,3.5-2.6c0.4-1.5,0.7-3,0.8-4.6C16.6,8.3,16.4,5.7,16.1,3.1z M12.7,8.5c-0.2,0-0.5,0-0.7,0c0.1-0.5,0.3-1.1,1-1.1
		c0.8,0,0.9,0.8,0.9,1.3C13.5,8.6,13.1,8.5,12.7,8.5z"/>
</g>
</svg>
